<?xml version="1.0" encoding="UTF-8"?>
<svg width="1183px" height="1411px" viewBox="0 0 1183 1411" version="1.1" xmlns="http://www.w3.org/2000/svg" xmlns:xlink="http://www.w3.org/1999/xlink">
    <!-- Generator: Sketch 51.1 (57501) - http://www.bohemiancoding.com/sketch -->
    <title>Wallpaper background Copy</title>
    <desc>Created with Sketch.</desc>
    <defs>
        <linearGradient x1="22.6720109%" y1="118.324251%" x2="74.9625865%" y2="-1.71485468%" id="linearGradient-1">
            <stop stop-color="#EADEE2" offset="0%"></stop>
            <stop stop-color="#EADEE2" offset="59.5359292%"></stop>
            <stop stop-color="#A77888" offset="100%"></stop>
        </linearGradient>
        <polygon id="path-2" points="-1.00974196e-28 0 1183 0 1183 1410.80349 -9.09494702e-13 1410.80349"></polygon>
        <linearGradient x1="8.35199224%" y1="85.2988999%" x2="86.1720343%" y2="26.9380832%" id="linearGradient-4">
            <stop stop-color="#EADEE2" offset="0%"></stop>
            <stop stop-color="#A87787" offset="100%"></stop>
        </linearGradient>
        <linearGradient x1="1.98439032%" y1="68.3751883%" x2="77.535567%" y2="39.3224567%" id="linearGradient-5">
            <stop stop-color="#6C1243" offset="0%"></stop>
            <stop stop-color="#A77888" offset="81.6090137%"></stop>
            <stop stop-color="#833E5B" offset="100%"></stop>
        </linearGradient>
        <linearGradient x1="91.336075%" y1="89.0145085%" x2="12.1362873%" y2="12.6457461%" id="linearGradient-6">
            <stop stop-color="#EADEE2" offset="0%"></stop>
            <stop stop-color="#833E5B" offset="100%"></stop>
        </linearGradient>
        <linearGradient x1="21.6319126%" y1="80.3929939%" x2="84.2074695%" y2="33.1025348%" id="linearGradient-7">
            <stop stop-color="#833E5B" offset="0%"></stop>
            <stop stop-color="#BC9BA6" offset="100%"></stop>
        </linearGradient>
        <linearGradient x1="24.8204486%" y1="92.3823641%" x2="91.7750446%" y2="40.2144586%" id="linearGradient-8">
            <stop stop-color="#EADEE2" offset="0%"></stop>
            <stop stop-color="#EADEE2" offset="100%"></stop>
        </linearGradient>
    </defs>
    <g id="Wallpaper-background-Copy" stroke="none" stroke-width="1" fill="none" fill-rule="evenodd" opacity="0.528306159">
        <g id="Path-13">
            <mask id="mask-3" fill="white">
                <use xlink:href="#path-2"></use>
            </mask>
            <use id="Mask" fill="url(#linearGradient-1)" xlink:href="#path-2"></use>
            <path d="M-9.43337684,528.93363 C21.6661788,467.255169 83.1656662,433.343172 175.065085,427.197639 C312.914214,417.979341 395.8022,482.667811 569.157817,398.148144 C742.513434,313.628477 793.953215,141.534972 986.70073,70.9752407 C1115.19907,23.9354196 1196.95976,-4.96299404 1231.98279,-15.7200003 L1259.37271,648.813351 L-64.1783569,893.432973 L-9.43337684,528.93363 Z" id="Path-5" fill="url(#linearGradient-4)" mask="url(#mask-3)"></path>
            <path d="M-41.7197266,658.114149 C95.7387695,639.92747 210.538778,599.19973 302.680298,535.93093 C440.892578,441.027729 557.713257,383.924535 832.257324,357.37645 C1015.2867,339.677727 1185.4515,254.552243 1342.75171,102 L1366,497.702928 C1175.68669,505.154587 1018.23307,539.412781 893.63916,600.477512 C706.748291,692.074608 556.610352,797.659071 302.680298,809.357596 C133.393595,817.156613 11.1668294,828.354777 -64,842.952089 L-64,658.114149 L-41.7197266,658.114149 Z" id="Path-4" fill="url(#linearGradient-5)" mask="url(#mask-3)"></path>
            <path d="M-22.6943635,1411 C-78.5400875,1040.70094 -57.012011,824.272059 41.8898659,761.713362 C190.242681,667.875318 488.800106,668.728117 626.435638,584.954048 C764.07117,501.179979 743.526492,427.12976 903.203767,367.338958 C1062.88104,307.548155 1088.17127,242.5607 1155.37933,130.125539 C1200.1847,55.1687656 1251.41922,11.7935858 1309.08288,0 L1239.6782,1436.43696 L-22.6943635,1466.63181 L-22.6943635,1411 Z" fill="url(#linearGradient-6)" mask="url(#mask-3)"></path>
            <path d="M-172,1402.70339 C-128.41459,1249.26953 -30.3061197,1148.56922 122.32541,1100.60246 C351.272703,1028.65232 470.513136,1069.54199 568.031657,889.855409 C665.550178,710.168832 691.578715,589.293917 982.565015,465.581673 C1176.55588,383.106844 1285.05531,308.246287 1308.06331,241 L1281.96972,705.5 C1216.14305,828.403606 1090.77145,900.536591 905.854901,921.898954 C628.480082,953.942499 519.072554,1277.25227 317.298298,1448.30199 C182.782127,1562.33515 19.6826942,1547.13561 -172,1402.70339 Z" id="Path-3" fill="url(#linearGradient-7)" mask="url(#mask-3)"></path>
            <path d="M-171.827125,1075.42648 C0.585724976,904.455257 137.630356,802.79255 239.306769,770.438364 C391.821387,721.907084 483.085589,720.024674 608.780788,702.940837 C734.475988,685.857001 801.395832,715.766365 877.594284,574.118643 C928.393252,479.686828 1035.45629,368.511503 1198.7834,240.592668 C1254.93955,287.234247 1233.52012,333.367502 1134.52511,378.992434 C988.016688,446.515407 958.812917,624.598958 877.594284,683.034797 C765.7127,763.532264 587.706742,930.360304 453.985225,1046.67056 C198.292512,1269.0707 -234.658744,1241.22201 -247.107761,1260.41978 C-259.747476,1279.91162 -234.65393,1218.24719 -171.827125,1075.42648 Z" id="Path-6" fill="url(#linearGradient-8)" mask="url(#mask-3)"></path>
        </g>
    </g>
</svg>