<?xml version="1.0" encoding="UTF-8"?>
<svg width="896px" height="800px" viewBox="0 0 896 800" version="1.1" xmlns="http://www.w3.org/2000/svg" xmlns:xlink="http://www.w3.org/1999/xlink">
    <!-- Generator: Sketch 51.3 (57544) - http://www.bohemiancoding.com/sketch -->
    <title>Wallpaper Member</title>
    <desc>Created with Sketch.</desc>
    <defs>
        <rect id="path-1" x="0" y="0" width="896" height="800"></rect>
    </defs>
    <g id="Wallpaper-Member" stroke="none" stroke-width="1" fill="none" fill-rule="evenodd">
        <g id="Group-2">
            <mask id="mask-2" fill="white">
                <use xlink:href="#path-1"></use>
            </mask>
            <use id="Mask" fill="#FFFFFF" xlink:href="#path-1"></use>
            <path d="M728.067294,-3.05732484 C726.972806,19.904452 718.466527,42.6211173 702.548457,65.092671 C686.630386,87.5642247 642.770285,104.019086 570.968153,114.457255 C575.739578,123.953891 591.758218,133.950414 619.024075,144.446825 C659.922859,160.191441 706.058622,155.199336 719.070146,155.199336 C732.08167,155.199336 751.686871,147.462773 753.852794,133.114395 C756.018718,118.766017 765.301816,38.7445814 753.852794,25.454463 C746.220113,16.5943841 737.624946,7.09045482 728.067294,-3.05732484 Z" id="Path-35" fill="#EADEE2" mask="url(#mask-2)"></path>
            <path d="M530.724212,-2.03821656 C521.264118,37.0811466 527.593901,67.1072726 549.713561,88.0401613 C582.893052,119.439494 640.351245,150.456935 663.995466,150.456935 C679.75828,150.456935 712.587393,146.446808 762.482803,138.426552 C750.476879,178.218107 714.628716,196.931575 654.938314,194.566954 C565.40271,191.020024 499.544391,187.292966 472.730768,159.150239 C454.855019,140.388421 436.305698,86.6589354 417.082803,-2.03821656 L530.724212,-2.03821656 Z" id="Path-30" fill="#C6D9D7" mask="url(#mask-2)"></path>
            <path d="M488.320489,-4.6985964 C474.536516,55.4877673 492.972738,100.561696 543.629155,130.523191 C619.613781,175.465433 681.365799,188.430025 721.371347,173.964438 C748.041713,164.320714 766.866975,147.578437 777.847134,123.737608 C775.719067,178.785006 764.245416,214.164643 743.42618,229.876518 C712.197327,253.444331 594.788091,277.81491 562.500472,260.982112 C530.212853,244.149315 410.793541,182.228125 388.897631,130.935252 C367.00172,79.6423787 363.070064,0.171726711 363.070064,-4.6985964 C363.070064,-7.94547848 404.820205,-7.94547848 488.320489,-4.6985964 Z" id="Path-29" fill="#CDB2BB" mask="url(#mask-2)"></path>
            <path d="M744.686818,-1.84054978 C772.490694,31.011018 784.512677,59.7315503 780.752765,84.3210471 C775.112898,121.205292 754.320831,202.80389 716.171114,225.290351 C690.737969,240.281325 645.983057,247.776812 581.906377,247.776812 L549.566879,247.776812 C611.347863,284.690463 654.560481,301.908181 679.204734,299.429965 C716.171114,295.712642 793.541332,262.856004 808.383248,229.816846 C823.225164,196.777689 840.479386,132.366117 840.479386,40.3306908 C840.479386,-21.0262601 808.54853,-35.0833403 744.686818,-1.84054978 Z" id="Path-26" fill="#94B8B6" mask="url(#mask-2)"></path>
            <path d="M505.790949,-5.88720078 C405.925871,33.6144471 387.185684,87.1958902 449.57039,154.857129 C543.147447,256.348986 701.637883,299.585691 770.929986,283.176863 C817.124721,272.237644 854.825916,260.551414 884.03357,248.118173 C873.681899,312.728789 852.243384,354.162497 819.718025,372.419299 C770.929986,399.8045 586.571145,412.617114 487.484327,384.627654 C388.397508,356.638195 108.04604,212.607756 65.7695359,141.416791 C37.5852,93.9561475 20.6735213,41.860905 15.0344997,-14.8689369 L505.790949,-5.88720078 Z" id="Path-28" fill="#C6D9D7" mask="url(#mask-2)" transform="translate(449.534035, 192.722442) rotate(-1.000000) translate(-449.534035, -192.722442) "></path>
            <path d="M282.951314,6.53978019 C278.060898,28.814906 286.368728,59.0014927 307.874804,97.0995401 C340.133919,154.246611 400.356872,176.220278 419.795056,188.297663 C439.233241,200.375048 534.293957,244.842685 591.821449,259.498737 C630.17311,269.269438 689.803752,277.851423 770.713376,285.244692 C685.699173,348.356742 639.001144,385.106 630.619288,395.492466 C618.046505,411.072163 381.195483,349.766415 322.230233,327.074527 C263.264982,304.382639 15.040743,216.936692 -47.4812818,147.841313 C-89.1626316,101.777728 -123.182671,52.6937203 -149.541401,0.589290849 L292.56839,-21.4012739 L282.951314,6.53978019 Z" id="Path-27" fill="#A77888" mask="url(#mask-2)"></path>
            <path d="M216.278765,-0.0204690488 C205.641473,38.2383598 216.713614,65.3642475 249.49519,81.357194 C298.667552,105.346614 412.103803,264.41431 463.163598,279.37895 C514.223393,294.343589 577.365132,317.809604 635.87949,317.809604 C694.393848,317.809604 796.231909,225.599032 807.778552,211.038842 C819.325195,196.478652 831.054237,302.158986 774.292494,358.758155 C717.530751,415.357325 547.043298,477.424497 485.832609,466.758127 C424.621919,456.091756 322.109775,372.584785 273.274454,289.109534 C224.439133,205.634284 111.99418,148.785307 95.2650291,99.8706817 C84.112262,67.2609317 73.8476981,29.8942713 64.4713376,-12.2292994 L216.278765,-0.0204690488 Z" id="Path-24" fill="#94B8B6" mask="url(#mask-2)"></path>
            <path d="M421.159236,413.314534 C457.23067,437.442047 498.18578,443.473925 544.024566,431.410169 C612.782745,413.314534 722.705359,389.754864 742.337629,359.021837 C761.969898,328.288809 798.573517,294.368911 798.573517,220.914425 C798.573517,171.944768 812.621402,118.009387 840.717171,59.1082803 C855.164194,144.056748 862.387706,210.809146 862.387706,259.365476 C862.387706,332.199969 842.901787,403.493177 742.337629,440.924428 C641.773471,478.355679 614.815688,496.78159 544.024566,486.63575 C496.830485,479.871858 455.875375,455.431452 421.159236,413.314534 Z" id="Path-21" fill="#833E5B" mask="url(#mask-2)"></path>
            <path d="M83.4417361,-27.0885649 C80.2262617,57.3724096 105.427101,108.100937 159.044255,125.097016 C239.469986,150.591135 319.498199,264.111519 326.393802,312.598047 C330.99087,344.9224 345.93576,387.764181 371.22847,441.12339 C314.993001,336.613402 236.489488,271.468242 135.717931,245.68791 C-15.4394048,207.017412 -70,111.894137 -70,37.4470683 C-70,-12.1843106 -66.3746408,-37 -59.1239225,-37 L83.4417361,-27.0885649 Z" id="Path-20" fill="#833E5B" mask="url(#mask-2)"></path>
            <path d="M34.0460462,-4.94812421 C36.5639198,117.638398 70.7557947,192.13745 136.621671,218.54903 C235.420485,258.166401 321.142338,287.138254 366.126498,353.477047 C411.110657,419.81584 468.393911,473.410344 578.704169,464.746185 C689.014428,456.082025 793.89919,387.321573 821.652875,327.372047 C849.406561,267.422521 849.521147,109.956583 831.709264,54.3254287 C813.897381,-1.30572526 806.630434,-21.5481022 772.345607,-38.8128219 C749.489055,-50.3226351 801.78331,-41.2799413 929.228371,-11.6847406 L934.511991,477.950344 C792.839205,546.634151 656.076597,578.795746 524.22417,574.435128 C326.445528,567.894201 166.929106,442.589223 73.384559,464.746185 C11.0215276,479.517492 -39.7843989,476.432118 -79.0332206,455.490064 L-99.6050955,-57.0700637 L34.0460462,-4.94812421 Z" id="Path-16" fill="#599B97" mask="url(#mask-2)"></path>
            <path d="M-89.4140127,154.904459 C7.89919096,276.832159 91.274399,350.634882 160.711611,376.312626 C264.86743,414.829242 403.322753,511.974479 495.565964,511.974479 C587.809175,511.974479 632.176912,531.783164 693.520726,496.519888 C754.86454,461.256613 804.065812,430.748596 842.308463,416.634479 C867.803563,407.225068 899.974942,368.656268 938.8226,300.928079 L927.183958,639.520104 L539.273248,703.202409 L-89.4140127,639.520104 L-89.4140127,154.904459 Z" id="Path-19" fill="#158A82" mask="url(#mask-2)"></path>
            <path d="M700.394904,595.243941 C713.678348,576.361604 735.425309,563.146491 765.635787,555.598602 C810.951505,544.276768 834.506595,523.336107 854.573678,504.259291 C867.951733,491.541413 894.707843,465.450737 934.842008,425.987261 L934.842008,535.843737 C911.115566,553.969183 889.644029,566.730161 870.427398,574.126672 C841.602452,585.221438 813.086569,595.243941 791.177718,595.243941 C776.571817,595.243941 746.310879,595.243941 700.394904,595.243941 Z" id="Path" fill="#813F5B" mask="url(#mask-2)"></path>
            <path d="M-95.5692112,307.120165 C32.4160263,457.78379 133.674478,542.909869 208.206145,562.498404 C320.003644,591.881206 502.087976,637.643231 556.401639,615.911895 C610.715303,594.180559 730.947027,575.604719 788.655906,575.604719 C827.128492,575.604719 878.764469,549.390459 943.563836,496.961939 L924.934181,679.261529 C881.393233,721.168468 794.241215,742.121938 663.478126,742.121938 C467.333493,742.121938 358.882286,723.247671 219.624636,742.121938 C126.786202,754.704783 27.7543927,760.511891 -77.4707931,759.543262 L-95.5692112,307.120165 Z" id="Path-18" fill="#158A82" mask="url(#mask-2)"></path>
            <path d="M-78.3764265,502.252604 C-43.9902159,570.465235 48.8948087,618.9919 200.278648,647.832599 C427.354406,691.093648 594.835651,723.56271 707.355096,697.527637 C782.36806,680.170921 845.38891,637.133142 896.417646,568.4143 L896.417646,815.846638 L-78.3764265,815.846638 L-78.3764265,502.252604 Z" id="Path-17" fill="#0E5D58" mask="url(#mask-2)"></path>
            <path d="M-78.2392094,496.474705 C-4.74831156,550.048001 64.9198942,584.378558 130.765408,599.466374 C229.533679,622.098098 267.123494,626.571332 313.11951,644.61536 C343.78352,656.644711 388.514333,672.593293 447.311947,692.461105 C319.060929,694.231474 226.653777,686.699776 170.09049,669.866009 C113.527204,653.032243 30.7506373,629.565698 -78.2392094,599.466374 L-78.2392094,496.474705 Z" id="Path-22" fill="#813F5B" mask="url(#mask-2)"></path>
            <path d="M-21.2475397,220.127389 C37.7036103,277.923827 75.6228458,308.810391 92.5101667,312.78708 C117.841148,318.752115 232.132965,360.879934 261.732904,387.75908 C291.332843,414.638227 362.236027,462.546714 395.928196,477.392084 C429.620365,492.237454 501.463155,513.222388 509.184196,513.222388 C516.905236,513.222388 481.094428,514.580254 449.574047,509.775194 C418.053666,504.970133 274.249158,437.445939 250.764,422.631297 C227.278842,407.816654 95.4202841,355.322043 73.1565115,337.269458 C50.8927389,319.216873 -11.2840204,258.905877 -21.2475397,239.516633 C-27.8898859,226.59047 -27.8898859,220.127389 -21.2475397,220.127389 Z" id="Path-23" fill="#813F5B" mask="url(#mask-2)"></path>
            <path d="M216.318471,157.961783 C248.604157,177.959165 274.443004,198.81311 293.835013,220.52362 C308.051698,236.440046 345.893287,301.52909 423.923559,372.513671 C442.860555,389.740764 481.608543,410.221997 540.167525,433.957371 C507.011317,441.326689 485.922799,444.326677 476.901972,442.957336 C441.361919,437.562436 421.714971,421.608675 423.923559,423.693553 C428.497762,428.01154 342.052541,342.203453 323.785871,310.263157 C305.519201,278.32286 257.614408,205.561379 245.922684,192.505684 C238.128202,183.801887 228.260131,172.287253 216.318471,157.961783 Z" id="Path-31" fill="#A77888" mask="url(#mask-2)"></path>
            <path d="M80.7770701,491.210191 C182.395871,533.29529 246.750375,555.943827 273.840581,559.155801 C314.47589,563.973763 379.388442,578.857898 416.279287,589.946451 C453.170133,601.035005 506.235867,615.735964 528.004022,615.735964 C542.516125,615.735964 555.213505,615.735964 566.096163,615.735964 C547.673459,629.768117 518.098304,634.667017 477.370697,630.432663 C416.279287,624.081133 292.410267,600.144683 224.395772,579.650242 C179.052776,565.987281 131.179875,536.507265 80.7770701,491.210191 Z" id="Path" fill="#599B97" mask="url(#mask-2)"></path>
            <path d="M552.624204,516.547445 C581.308741,502.383795 605.535376,495.301969 625.304109,495.301969 C654.957208,495.301969 674.957389,490.378654 702.902297,475.264052 C730.847205,460.149449 807.740984,423.452261 817.507111,423.452261 C824.017862,423.452261 838.831413,418.182611 861.947766,407.643312 C822.551182,432.478758 794.211302,448.678485 776.928126,456.242495 C751.003363,467.58851 689.521044,516.547445 657.412576,516.547445 C636.006931,516.547445 601.077474,516.547445 552.624204,516.547445 Z" id="Path-37" fill="#C7D3BD" mask="url(#mask-2)"></path>
            <path d="M798.967933,201.783439 C793.658828,219.338835 789.56364,237.120055 786.68237,255.127099 C782.360465,282.137666 752.728371,341.150143 739.243171,354.726387 C730.253038,363.777217 718.322724,374.067849 703.452229,385.598284 C724.195944,380.892567 740.115228,370.601935 751.210081,354.726387 C767.852361,330.913066 795.97152,301.385405 798.967933,263.272845 C800.965542,237.864472 800.965542,217.368003 798.967933,201.783439 Z" id="Path-32" fill="#A77888" mask="url(#mask-2)"></path>
            <path d="M366.439922,0 C348.229108,5.68606853 336.895459,17.8137822 332.438975,36.383141 C325.754248,64.2371792 333.022369,105.436362 343.450541,125.727544 C350.402657,139.254999 365.460509,155.020824 388.624097,173.025019 C365.81095,164.436159 343.421169,147.069038 321.454754,120.923656 C288.505132,81.7055839 279.866642,52.0436311 276.627589,29.3155624 C274.46822,14.1635166 273.388535,4.39166247 273.388535,0 L366.439922,0 Z" id="Path-33" fill="#CDB2BB" mask="url(#mask-2)"></path>
            <path d="M721.714099,0 C736.027595,10.2390793 745.032872,32.1075477 748.729931,65.6054053 C754.275519,115.852192 748.140419,140.332599 739.104709,167.538848 C733.080903,185.676348 725.612879,204.697246 716.700637,224.601543 C745.063304,203.062611 763.119941,173.521789 770.870549,135.979077 C782.49646,79.6650106 789.531479,48.7625719 782.49646,35.3342141 C777.806447,26.3819756 769.707175,14.6039042 758.198645,0 L721.714099,0 Z" id="Path-34" fill="#A77888" mask="url(#mask-2)"></path>
            <path d="M16.1972884,328.901863 C121.511181,376.977497 198.462105,408.943342 247.050061,424.799396 C319.931994,448.583478 347.332043,509.673541 386.40608,532.025073 C425.480118,554.376605 450.595024,566.477592 522.919274,573.013442 C571.135441,577.370675 591.869244,580.173992 585.120682,581.423394 C549.613485,582.359326 511.117128,581.19165 469.63161,577.920367 C407.403333,573.013442 357.184335,527.84384 300.339906,499.107596 C243.495477,470.371352 193.63882,444.028347 176.885336,432.174006 C160.131851,420.319665 101.796502,394.053975 71.0232176,374.108956 C50.5076945,360.812278 32.2323847,345.743246 16.1972884,328.901863 Z" id="Path-38" fill="#599B97" mask="url(#mask-2)" transform="translate(301.280426, 455.318783) rotate(6.000000) translate(-301.280426, -455.318783) "></path>
            <path d="M865.116133,-10.1225118 C897.578602,25.8352303 901.43812,94.9575989 901.43812,179.300774 C901.43812,263.643949 881.605705,350.108118 851.285537,387.54284 C831.072091,412.499322 798.100055,439.495838 752.369427,468.532389 C858.944923,436.336165 914.344998,420.238053 918.56965,420.238053 C922.794303,420.238053 948.679996,271.146261 996.226731,-27.0373223 C887.17802,-39.73261 843.474487,-34.0943399 865.116133,-10.1225118 Z" id="Path-40" fill="#599B97" mask="url(#mask-2)"></path>
            <path d="M-78.2038217,642.038217 C-30.5229443,698.012313 33.3837998,737.271065 113.516411,759.814474 C233.715327,793.629588 387.256229,808.439427 431.085308,803.268531 C460.304694,799.821267 498.788272,804.71442 546.536042,817.94799 L371.429205,817.94799 L-78.2038217,817.94799 L-78.2038217,642.038217 Z" id="Path-39" fill="#6C1243" mask="url(#mask-2)"></path>
            <path d="M395.681529,832.240993 C440.864911,803.407855 481.091141,788.991286 516.360219,788.991286 C569.263835,788.991286 712.833189,805.627644 772.820518,774.89137 C812.812071,754.400522 863.645386,729.818897 925.320462,701.146497 L925.320462,849.957508 L395.681529,832.240993 Z" id="Path-41" fill="#404040" mask="url(#mask-2)"></path>
            <path d="M272.369427,631.847134 C346.872428,639.692233 399.2974,648.766166 429.644344,659.068934 C475.164758,674.523085 519.610528,676.52671 570.384286,683.049944 C604.233459,687.398768 663.761362,687.398768 748.967998,683.049944 C742.231844,699.992582 699.866861,708.463901 621.873048,708.463901 C504.882328,708.463901 398.257007,683.049944 382.180149,683.049944 C371.462243,683.049944 334.858669,665.982341 272.369427,631.847134 Z" id="Path" fill="#414042" mask="url(#mask-2)"></path>
            <path d="M-106.471828,257.068824 C-10.6588972,327.237436 45.8074942,376.070121 62.9273455,403.566879 C88.6071225,444.812015 166.418327,548.101833 212.833629,565.719767 C243.777163,577.465057 279.213125,589.933266 319.141515,603.124394 C247.404669,594.145993 197.137025,579.994199 168.338582,560.669013 C125.140918,531.681234 24.8500282,474.67887 10.6343282,449.680011 C-3.58137172,424.681151 -29.3620036,394.532456 -48.1902708,359.235669 C-60.7424489,335.704478 -80.1696348,301.648863 -106.471828,257.068824 Z" id="Path-42" fill="#414042" mask="url(#mask-2)"></path>
            <path d="M646.382166,519.833767 C661.569658,528.293243 689.562521,524.011779 730.360757,506.989374 C791.55811,481.455766 819.539176,457.130914 834.515227,451.683345 C844.49926,448.051632 865.150656,439.828099 896.469413,427.012745 L903.727394,364.840764 C866.631654,389.375243 839.323934,407.862312 821.804232,420.301971 C795.52468,438.961461 767.396603,451.310373 740.063473,473.299386 C721.841387,487.958727 690.614284,503.470188 646.382166,519.833767 Z" id="Path-43" fill="#414042" mask="url(#mask-2)"></path>
            <path d="M450.782956,21.4012739 C422.674223,58.4544458 415.64704,87.177758 429.701407,107.57121 C450.782956,138.161389 505.170728,201.220178 517.685343,209.360873 C526.028419,214.788003 532.460849,219.47169 536.982631,223.411935 C480.125804,190.42622 443.012331,160.24163 425.642211,132.858166 C399.587031,91.7829709 403.13573,61.874281 414.38897,48.7376529 C421.891131,39.9799008 434.022459,30.8677745 450.782956,21.4012739 Z" id="Path-36" fill="#A77888" mask="url(#mask-2)"></path>
            <path d="M-83.0359997,35 C-27.5327052,85.9202632 12.1078944,132.387782 35.8857991,174.402558 C71.5526561,237.424721 137.85687,293.869397 168.900049,317.671448 C189.595501,333.539482 220.530683,356.281668 261.705593,385.898006 C199.81969,364.389335 156.655643,349.024288 132.213453,339.802864 C95.5501679,325.970729 40.4103219,297.632718 27.4464374,284.087148 C14.482553,270.541578 -40.6537384,237.536969 -65.8900364,161.129638 C-82.7142351,110.191417 -88.4295562,68.1482042 -83.0359997,35 Z" id="Path-2" fill="#94B8B6" mask="url(#mask-2)"></path>
            <path d="M424.953917,1024.03198 C442.422108,1009.40216 453.006404,998.268871 456.706805,990.632115 C462.257408,979.17698 468.636695,976.063126 476.58548,975.772415 C484.534265,975.481704 488.366719,968.072114 488.688917,964.15374 C489.011116,960.235366 486.814552,949.744874 486.443535,947.241733 C486.072519,944.738592 486.697144,928.413621 489.619876,923.77982 C492.542607,919.146019 501.975214,916.939692 507.330056,916.429788 C512.684899,915.919884 511.29139,915.319912 512.986105,912.070832 C514.680821,908.821753 520.45501,905.22753 524.132223,901.857382 C527.809436,898.487234 534.031529,897.082253 535.051092,894.13975 C536.070655,891.197248 532.866733,887.64208 531.91283,886.102849 C530.958927,884.563619 531.216685,880.334763 531.216685,877.103746 C531.216685,873.872729 522.519765,858.489701 522.519765,857.466476 C522.519765,856.443252 528.800929,841.149805 531.216685,838.690356 C533.632442,836.230907 534.031529,826.760466 533.417887,819.782671 C532.804246,812.804875 536.378941,812.136069 538.958726,810.706923 C541.538511,809.277777 548.682532,802.012932 548.682532,794.134201 C548.682532,786.25547 539.261886,778.909831 535.71404,774.668039 C532.166195,770.426246 533.429848,753.777124 534.571944,751.158528 C535.71404,748.539933 540.266071,744.341588 540.266071,742.0696 C540.266071,739.797612 539.174501,736.110635 542.013998,728.109615 C544.853495,720.108596 551.492006,713.658034 551.492006,710.340365 C551.492006,707.022697 547.317338,697.296206 545.575025,693.267503 C543.832711,689.238801 545.040712,686.416635 547.70422,683.362827 C550.367728,680.309019 553.651468,674.480643 553.651468,672.622387 C553.651468,670.764131 542.152153,649.685755 539.743719,643.668714 C537.335285,637.651673 543.572024,634.990572 547.317338,632.862353 C551.062652,630.734134 554.237772,626.531396 555.658131,621.155073 C557.078489,615.778751 558.398771,611.384158 560.421787,610.458814 C562.444804,609.533469 564.78172,608.107008 566.738588,605.739581 C568.695456,603.372154 573.0776,601.921773 575.256346,601.117008 C577.435091,600.312244 588.043967,600.13301 590.881511,600.13301 C593.719055,600.13301 592.830568,597.884039 594.746917,596.679944 C596.663266,595.475849 596.239038,594.459703 596.239038,592.663202 C596.239038,590.866701 595.631743,589.44683 596.239038,587.605661 C596.846334,585.764492 597.726766,585.003131 597.726766,581.936675 C597.726766,578.870219 599.931385,578.873348 601.205046,578.550905 C602.478706,578.228463 602.07669,575.310369 602.07669,573.322501 C602.07669,571.997257 603.05785,570.760616 605.020169,569.61258 C603.995969,568.278223 603.193727,566.933207 602.613444,565.577532 C601.74302,563.544019 600.905059,558.208704 600.522326,555.65406 C600.139594,553.099416 599.931385,549.595263 598.606221,546.296145 C597.281058,542.997027 597.40115,533.32326 597.40115,528.414369 C597.40115,523.505479 599.931385,510.015123 600.522326,506.574678 C601.113268,503.134232 599.931385,487.945987 599.931385,485.387438 C599.931385,482.828888 595.631743,459.322551 595.281474,456.739593 C594.931205,454.156634 590.075771,422.824778 589.477262,413.436107 C588.878754,404.047437 588.845558,388.771076 590.075771,382.527258 C591.305983,376.283441 593.198168,372.650164 593.947279,371.078958 C594.696391,369.507752 594.38005,365.447318 594.998086,361.948046 C595.616121,358.448775 597.992824,351.868357 598.606221,348.350291 C599.219619,344.832224 598.606221,340.466922 597.40115,337.018177 C596.196079,333.569432 596.03742,331.287437 595.631743,326.88967 C595.226066,322.491904 593.622152,320.943391 590.075771,316.052815 C586.52939,311.162239 587.239447,306.91096 586.540862,303.043835 C585.842277,299.176709 582.521191,291.513001 581.335647,288.896847 C580.545284,287.152744 579.68918,286.604551 578.767334,287.252267 C575.050659,291.325418 569.304623,295.527005 561.529223,299.857028 C549.866123,306.352064 535.488501,306.91096 534.031529,306.91096 C532.574557,306.91096 527.830916,310.507186 523.688711,312.414009 C519.546507,314.320833 508.719904,317.814899 501.975214,319.038766 C495.230524,320.262632 472.744238,322.817276 466.750613,322.483117 C460.756988,322.148958 460.074513,325.010667 453.116244,326.88967 C446.157976,328.768674 428.237634,327.950729 421.728735,325.010667 C415.219836,322.070605 417.016581,315.382788 418.442066,313.372465 C419.86755,311.362141 421.683823,312.414009 423.955322,313.372465 C426.226822,314.33092 429.192514,313.372465 437.186455,311.481638 C445.180396,309.590812 445.839683,308.126731 445.839683,306.062314 C445.839683,303.997898 439.911962,301.932179 438.066887,299.509384 C436.221812,297.086589 437.792042,294.767207 438.729347,294.167966 C439.666651,293.568726 440.683774,295.16727 442.540565,296.876875 C444.397356,298.58648 447.989626,300.329526 453.579283,301.932179 C459.168939,303.534831 460.862679,306.502069 462.287919,307.754494 C463.713159,309.006918 467.065245,308.498967 469.436821,308.126731 C471.808398,307.754494 475.162436,305.916741 482.026974,304.643206 C488.891512,303.36967 486.420102,302.731369 492.919482,300.329526 C499.418861,297.927682 511.167636,291.486396 520.45501,289.403577 C529.742383,287.320759 529.176095,288.705969 531.91283,286.540825 C534.649565,284.375681 539.531117,282.115788 543.873963,279.696858 C548.216809,277.277928 554.596096,275.174403 556.576397,273.954889 C558.556697,272.735374 565.109044,264.423182 569.177045,260.883635 C573.245046,257.344089 579.190097,253.534579 582.521191,253.85629 C585.852285,254.178 585.100244,253.080816 587.239447,252.285508 C589.37865,251.490199 590.071865,252.285508 593.198168,252.285508 C596.32447,252.285508 597.932534,251.246481 599.024835,250.535175 C600.117137,249.823869 609.605152,246.751567 611.809772,245.64877 C614.014391,244.545972 614.119594,244.623592 614.119594,241.626902 C614.119594,238.630211 614.119594,235.481697 613.393426,233.298069 C612.667259,231.114442 611.807819,231.869412 610.637896,232.346851 C609.467974,232.824291 607.800352,231.745902 606.280649,229.856441 C604.760946,227.96698 602.866809,224.667542 603.965457,222.554456 C605.064106,220.441371 605.891326,221.761164 607.050997,221.012785 C608.210667,220.264406 607.050997,218.15547 606.559156,215.535654 C606.067315,212.915838 606.308964,208.226384 607.407856,204.547707 C608.506748,200.869029 612.546923,197.650217 615.06715,196.917459 C617.587378,196.184701 618.20224,194.618621 619.411949,191.882863 C620.621658,189.147104 624.81805,187.595425 627.059771,186.289544 C629.301492,184.983664 633.868412,185.55874 635.920963,185.924142 C637.973515,186.289544 639.918666,187.561252 641.551627,190.530605 C643.184588,193.499958 648.169634,198.404698 649.34932,199.971023 C650.529006,201.537347 650.994974,203.486648 651.679402,207.729173 C652.36383,211.971698 650.897582,215.816601 650.352774,217.079766 C649.807965,218.342931 651.732613,218.591902 653.357763,218.591902 C654.982913,218.591902 654.876002,219.75914 655.515761,221.012785 C656.155521,222.26643 654.860868,226.038838 653.792487,227.887819 C652.724106,229.736799 650.366199,229.856441 649.34932,229.308177 C648.671402,228.942668 647.989249,229.125423 647.302861,229.856441 C646.731253,233.581541 646.445448,236.19294 646.445448,237.690637 C646.445448,239.188333 646.731253,241.683861 647.302861,245.17722 C652.244238,247.747122 657.096629,249.533106 661.860034,250.535175 C669.005143,252.038278 675.391029,252.285508 679.24895,252.285508 C683.10687,252.285508 687.286101,254.144551 691.348731,256.931582 C695.411361,259.718613 700.413814,268.116088 704.445321,270.806682 C708.476828,273.497275 714.053306,274.526083 716.740804,275.174403 C719.428302,275.822723 726.746828,281.362594 730.452624,282.878847 C732.923154,283.889683 734.331725,284.340453 734.678337,284.231158 C746.173341,283.804205 755.086317,284.811241 761.417263,287.252267 C770.913683,290.913807 791.587156,296.219598 797.25897,296.219598 C802.930784,296.219598 801.321162,295.030792 805.233437,292.828082 C809.145713,290.625373 810.126741,290.519292 811.81655,290.003792 C813.506358,289.488292 816.885494,289.434375 818.305041,288.290719 C819.251407,287.528282 822.106022,285.218907 826.868888,281.362594 C827.336012,281.878094 827.896437,282.620805 828.550163,283.590728 C829.530753,285.045612 827.834337,287.252267 826.868888,288.290719 C825.903438,289.329171 820.885313,293.361993 820.885313,293.361993 C820.885313,293.361993 820.885313,296.740797 823.239738,297.877 C825.594162,299.013204 827.534944,300.752578 829.64034,301.264571 C831.745736,301.776564 842.211348,301.264571 843.793793,300.752578 C845.376237,300.240585 848.532797,301.264571 848.532797,301.932179 C848.532797,302.599786 847.66311,303.043835 846.150143,303.043835 C844.637176,303.043835 841.930366,306.062314 839.648314,306.062314 C838.126947,306.062314 835.733116,306.345196 832.466822,306.91096 C835.818741,308.987279 838.212571,310.186021 839.648314,310.507186 C841.801929,310.988933 846.150143,309.477063 847.66311,309.477063 C849.176077,309.477063 849.402484,311.481638 848.532797,312.414009 C847.66311,313.34638 840.713505,317.339751 830.179063,317.339751 C819.64462,317.339751 807.837238,314.170479 805.233437,312.414009 C802.629637,310.65754 802.101425,311.481638 800.412023,311.481638 C798.722621,311.481638 795.517404,311.481638 792.907029,310.507186 C790.296653,309.532733 776.429692,311.875715 760.892558,312.414009 C745.355424,312.952303 736.065277,305.342105 733.390902,304.483815 C730.716528,303.625525 723.6775,305.158436 707.542704,301.264571 C691.407909,297.370706 682.754875,288.799205 681.195225,287.252267 C680.155458,286.220976 679.5067,285.983828 679.24895,286.540825 C678.106901,290.963779 677.037473,295.402513 676.040664,299.857028 C674.545452,306.538801 671.062738,316.192834 669.303969,320.943391 C667.5452,325.693947 666.003193,348.592604 666.003193,353.115237 C666.003193,357.63787 670.955238,377.175246 672.200592,385.307644 C673.445947,393.440042 673.945851,406.78178 672.200592,426.607585 C670.455334,446.433389 666.755105,462.136601 664.461186,474.271168 C662.167267,486.405735 664.461186,497.182748 666.003193,501.344111 C667.5452,505.505474 668.802303,509.647452 670.320225,512.662736 C671.838147,515.678021 672.200592,517.81862 670.320225,521.218085 C668.439858,524.61755 667.956989,527.515935 667.956989,535.389276 C667.956989,543.262617 670.320225,558.242701 672.200592,564.214527 C674.08096,570.186353 670.320225,567.504142 670.320225,571.360041 C670.320225,575.215939 673.945851,576.686867 673.945851,579.225745 C673.945851,581.764623 672.611794,583.074007 673.945851,585.003131 C675.279907,586.932255 677.267774,597.278094 676.66507,600.13301 C676.062365,602.987926 677.44929,605.259523 683.335939,608.432239 C689.222587,611.604955 693.421546,615.226468 698.681993,621.567789 C703.942439,627.909109 695.217911,630.31464 695.217911,643.668714 C695.217911,657.022789 704.211483,655.863199 708.444512,658.706366 C712.677542,661.549534 709.268678,665.131689 711.025685,668.894186 C712.782692,672.656684 714.053306,690.561588 712.576504,696.200928 C711.099702,701.840267 702.793424,701.747453 701.641471,708.242093 C700.489518,714.736733 713.271435,721.110362 715.65758,721.962725 C718.043726,722.815087 716.740804,735.787919 715.65758,737.326989 C714.574357,738.866058 709.495427,749.916227 712.576504,754.487617 C715.65758,759.059007 717.364068,762.994797 714.053306,766.219794 C710.742543,769.444792 709.365017,776.792382 714.053306,780.41507 C718.741594,784.037758 718.101882,787.646936 716.740804,792.135498 C715.379726,796.62406 711.025685,799.863156 711.025685,807.237768 C711.025685,814.61238 722.439474,816.805848 730.452624,816.805848 C738.465773,816.805848 738.099216,819.26601 738.099216,826.212384 C738.099216,833.158759 738.099216,832.718773 744.798869,834.587979 C751.498523,836.457185 750.037581,840.565679 748.844508,843.260226 C747.651435,845.954773 744.798869,846.820059 744.798869,848.705126 C744.798869,850.590193 757.482685,858.307277 763.414565,864.245032 C769.346446,870.182787 764.318622,872.213537 763.414565,877.958615 C762.510509,883.703692 772.028657,887.904413 774.002426,889.745422 C775.318272,890.972762 776.127361,893.588398 776.429692,897.592329 C795.874449,896.559625 807.670068,896.043273 811.81655,896.043273 C818.036272,896.043273 820.885313,901.722558 820.885313,906.707499 C820.885313,911.692441 821.925654,912.352714 825.068411,914.551469 C828.211168,916.750224 830.179063,920.700112 830.921576,923.084495 C831.664089,925.468878 831.842668,935.936316 830.179063,936.611274 C828.515457,937.286233 824.631362,938.062817 823.239738,941.855273 C821.848113,945.647729 819.05429,947.956334 817.737269,947.956334 C816.420248,947.956334 807.790883,947.956334 804.002539,950.525758 C801.476977,952.238707 800.002524,954.587257 799.579182,957.571408 C808.559048,968.54619 814.327818,975.579113 816.885494,978.670176 C820.722007,983.306771 823.306705,983.689188 826.868888,985.003859 C830.431071,986.318531 832.878309,987.200265 833.681328,990.286629 C834.484346,993.372992 835.857173,995.520054 838.756734,995.520054 C841.656294,995.520054 843.032058,1000.17956 846.150143,1002.85413 C849.268228,1005.52871 854.075178,1002.85413 857.054629,1002.85413 C860.034081,1002.85413 861.268274,1007.77328 859.732728,1012.02628 C858.709032,1014.86162 855.780734,1018.86352 850.947836,1024.03198 L424.953917,1024.03198 Z M630.77184,443.429305 L629.412437,447.960755 C628.931248,455.956062 628.810951,462.829487 629.051545,468.581029 C629.412437,477.208342 631.140372,490.473111 632.053294,490.473111 C632.966216,490.473111 632.053294,489.453593 632.053294,487.092092 C632.053294,484.730592 633.039889,480.879352 634.526424,477.180485 C636.01296,473.481618 636.08945,469.370246 634.526424,461.298037 C633.484408,455.916564 632.232879,449.96032 630.77184,443.429305 Z" id="Combined-Shape" fill="#6C1243" mask="url(#mask-2)"></path>
        </g>
    </g>
</svg>