<?xml version="1.0" encoding="UTF-8"?>
<svg width="896px" height="800px" viewBox="0 0 896 800" version="1.1" xmlns="http://www.w3.org/2000/svg" xmlns:xlink="http://www.w3.org/1999/xlink">
    <!-- Generator: Sketch 51.1 (57501) - http://www.bohemiancoding.com/sketch -->
    <title>Wallpaper Member</title>
    <desc>Created with Sketch.</desc>
    <defs>
        <rect id="path-1" x="0" y="0" width="896" height="800"></rect>
    </defs>
    <g id="Wallpaper-Member" stroke="none" stroke-width="1" fill="none" fill-rule="evenodd">
        <g id="Combined-Shape">
            <mask id="mask-2" fill="white">
                <use xlink:href="#path-1"></use>
            </mask>
            <use id="Mask" fill="#FFFFFF" xlink:href="#path-1"></use>
            <path d="M730.653533,-4.42715814 C729.579566,18.1040854 721.23278,40.3948132 705.613173,62.4450253 C689.993567,84.4952373 646.955842,100.64157 576.5,110.884024 C581.181961,120.202597 596.900252,130.011686 623.654873,140.311289 C663.786805,155.760694 709.057522,150.86219 721.82508,150.86219 C734.592638,150.86219 753.830242,143.270688 755.955554,129.191342 C758.080867,115.111996 767.189907,36.5909624 755.955554,23.5500337 C748.465986,14.8560813 740.031979,5.53035066 730.653533,-4.42715814 Z" id="Path-35" fill="#CDB2BB" mask="url(#mask-2)"></path>
            <path d="M537.510633,-3 C528.227916,35.3858751 534.439015,64.8490112 556.143932,85.3894082 C588.701307,116.200004 645.08216,146.635868 668.283051,146.635868 C683.750313,146.635868 715.963879,142.70093 764.92375,134.831054 C753.142937,173.876518 717.966927,192.239108 659.39572,189.918824 C571.538909,186.438399 506.915434,182.781223 480.604566,155.166172 C463.063988,136.756138 444.862466,84.0340804 426,-3 L537.510633,-3 Z" id="Path-30" fill="#C6D9D7" mask="url(#mask-2)"></path>
            <path d="M495.90198,-5.64522661 C482.376456,53.4126428 500.466999,97.6414358 550.173608,127.041152 C624.733522,171.140727 685.32769,183.862233 724.583135,169.667876 C750.753431,160.204972 769.225719,143.776613 780,120.382799 C777.911834,174.398059 766.653314,209.114327 746.22444,224.531605 C715.581127,247.657521 600.373314,271.571151 568.691088,255.053969 C537.008862,238.536786 419.828662,177.776619 398.3433,127.445487 C376.857937,77.1143552 373,-0.866222057 373,-5.64522661 C373,-8.83122965 413.967327,-8.83122965 495.90198,-5.64522661 Z" id="Path-29" fill="#CDB2BB" mask="url(#mask-2)"></path>
            <path d="M746.949743,-3.25790464 C774.232297,28.9776962 786.028867,57.1597186 782.339454,81.2881623 C776.805334,117.480828 756.403118,197.549452 718.968708,219.614292 C694.012435,234.324185 650.096678,241.679132 587.221436,241.679132 L555.488303,241.679132 C616.110894,277.900652 658.513276,294.795538 682.695449,292.363788 C718.968708,288.716165 794.888235,256.475589 809.451865,224.055915 C824.015495,191.636242 840.9462,128.432387 840.9462,38.1226252 C840.9462,-22.0838829 809.614048,-35.8773928 746.949743,-3.25790464 Z" id="Path-26" fill="#94B8B6" mask="url(#mask-2)"></path>
            <path d="M513.052503,-6.6907202 C415.059895,32.0702718 396.671086,84.6470628 457.886079,151.039653 C549.708567,250.628538 705.227307,293.054555 773.220183,276.953392 C818.548767,266.219284 855.543064,254.752171 884.203074,242.552052 C874.045497,305.951219 853.008954,346.608046 821.093446,364.522532 C773.220183,391.394262 592.31807,403.966639 495.089129,376.501981 C397.860189,349.037324 122.76531,207.707456 81.2814908,137.851321 C53.6256112,91.2805653 37.0310265,40.1621086 31.4977366,-15.5040487 L513.052503,-6.6907202 Z" id="Path-28" fill="#C6D9D7" mask="url(#mask-2)" transform="translate(457.850405, 188.194992) rotate(-1.000000) translate(-457.850405, -188.194992) "></path>
            <path d="M294.383477,5.08584814 C289.584756,26.9433154 297.736814,56.5639035 318.839652,93.9476126 C350.493908,150.023176 409.58768,171.584836 428.661399,183.43577 C447.735118,195.286704 541.013445,238.920573 597.462297,253.301824 C635.094864,262.889325 693.607432,271.310398 773,278.565042 C689.579814,340.493742 643.757373,376.553952 635.532677,386.745671 C623.195633,402.033249 390.785568,341.876983 332.925916,319.610569 C275.066264,297.344154 31.4962291,211.537818 -29.8535077,143.737978 C-70.7533323,98.5380843 -104.135496,50.3744019 -130,-0.753069526 L303.820233,-22.3313112 L294.383477,5.08584814 Z" id="Path-27" fill="#A77888" mask="url(#mask-2)"></path>
            <path d="M228.398305,-1.32751279 C217.960462,36.213963 228.825001,62.8312403 260.991922,78.5243191 C309.242303,102.063937 420.551624,258.149114 470.654048,272.833167 C520.756471,287.51722 582.714302,310.543246 640.131516,310.543246 C697.54873,310.543246 797.477328,220.061623 808.807471,205.774437 C820.137614,191.48725 831.646737,295.186077 775.949277,350.724012 C720.251817,406.261948 552.961003,467.16536 492.898014,456.698984 C432.835025,446.232608 332.244984,364.291392 284.325325,282.381303 C236.405666,200.471214 126.069056,144.688155 109.653577,96.6906789 C98.709924,64.6923617 88.6378207,28.0263262 79.4372669,-13.3074275 L228.398305,-1.32751279 Z" id="Path-24" fill="#94B8B6" mask="url(#mask-2)"></path>
            <path d="M429.630996,403.757397 C465.026092,427.432519 505.213293,433.351299 550.192602,421.513738 C617.661565,403.757397 725.52313,380.639471 744.787295,350.482688 C764.051459,320.325904 799.96876,287.042004 799.96876,214.96479 C799.96876,166.913314 813.753247,113.989221 841.322221,56.1925104 C855.498362,139.548194 862.586433,205.048985 862.586433,252.694883 C862.586433,324.16373 843.465875,394.12019 744.787295,430.849605 C646.108714,467.579021 619.65639,485.659445 550.192602,475.70384 C503.88341,469.066771 463.696208,445.084623 429.630996,403.757397 Z" id="Path-21" fill="#813F5B" mask="url(#mask-2)"></path>
            <path d="M107.564704,-19.2744043 C104.409519,63.602927 129.137843,113.380294 181.749675,130.057697 C260.667424,155.073802 339.195108,266.465678 345.961418,314.043084 C350.472291,345.761355 365.136964,387.799852 389.955436,440.158576 C334.774383,337.60815 257.74281,273.684462 158.86072,248.387512 C10.5375841,210.442086 -43,117.102371 -43,44.0511857 C-43,-4.64960476 -39.4426163,-29 -32.327849,-29 L107.564704,-19.2744043 Z" id="Path-20" fill="#813F5B" mask="url(#mask-2)"></path>
            <path d="M50.2521165,-6.14453697 C52.7227799,114.143488 86.2735572,187.245683 150.904448,213.162046 C247.850785,252.036591 331.965353,280.465222 376.10606,345.560162 C420.246766,410.655103 476.455959,463.24471 584.6979,454.743003 C692.939841,446.241297 795.858014,378.770103 823.091318,319.944631 C850.324621,261.119159 850.437059,106.605707 832.959149,52.0176368 C815.481238,-2.570433 808.350547,-22.4332653 774.70856,-39.3742716 C752.280569,-50.6682758 803.594306,-41.7951325 928.649772,-12.7548418 L933.834325,467.699585 C794.817903,535.095571 660.619595,566.654136 531.2394,562.375279 C337.169108,555.956995 180.643619,433.001485 88.8530322,454.743003 C27.6593076,469.237349 -22.1940078,466.209826 -60.7069141,445.660435 L-80.8930664,-57.2891901 L50.2521165,-6.14453697 Z" id="Path-16" fill="#599B97" mask="url(#mask-2)"></path>
            <path d="M-71.407255,150.894607 C24.0813261,270.536163 105.893249,342.955085 174.028514,368.151371 C276.231411,405.945801 412.090696,501.269564 502.604347,501.269564 C593.117998,501.269564 636.653839,520.706837 696.847457,486.104747 C757.041075,451.502658 805.319823,421.566666 842.845424,407.71719 C867.862491,398.484205 899.430657,360.63857 937.549921,294.180284 L926.129504,626.423708 L545.49212,688.911971 L-71.407255,626.423708 L-71.407255,150.894607 Z" id="Path-19" fill="#158A82" mask="url(#mask-2)"></path>
            <path d="M657.989668,577.755147 C701.697602,562.778834 738.373585,551.587494 768.017616,544.181128 C812.483664,533.071579 835.597097,512.523555 855.287921,493.804429 C868.415138,481.325012 894.669571,455.723535 934.051221,417 L934.051221,524.796667 C910.769649,542.582261 889.700704,555.103971 870.844385,562.361797 C842.559906,573.248536 814.578696,583.083118 793.080635,583.083118 C779.026745,583.083118 711.536097,588.809217 667.94014,588.809217 C667.364917,588.809217 664.048093,585.124527 657.989668,577.755147 Z" id="Path" fill="#813F5B" mask="url(#mask-2)"></path>
            <path d="M-32.6047178,344.796881 C62.9542708,462.876671 147.300864,531.52719 220.435062,550.74844 C330.136358,579.580314 508.806608,624.484302 562.101891,603.160428 C615.397173,581.836554 733.374552,563.609011 790.00139,563.609011 C827.752615,563.609011 878.420417,537.886268 942.004796,486.440783 L923.724447,665.322256 C880.999892,706.44344 795.481974,727.004032 667.170693,727.004032 C474.703772,727.004032 368.286026,708.483658 231.639456,727.004032 C140.541743,739.350949 52.460352,745.524407 -32.6047178,745.524407 L-32.6047178,344.796881 Z" id="Path-18" fill="#158A82" mask="url(#mask-2)"></path>
            <path d="M-43.3626648,500.314262 C-21.0674414,561.138151 64.3528662,605.700064 212.898258,634 C435.716346,676.449904 600.057318,708.310172 710.467023,682.763256 C820.876729,657.21634 925.282324,507.765484 958.355082,513.669286 C980.403588,517.605155 980.403588,617.75887 958.355082,814.130432 L-26.7392728,814.130432 L-43.3626648,500.314262 Z" id="Path-17" fill="#0E5D58" mask="url(#mask-2)"></path>
            <path d="M-1.2063448,501.677689 C31.8149461,543.690355 80.6310468,572.099148 145.241957,586.904068 C242.158323,609.111448 279.043329,613.500808 324.17692,631.20651 C354.26598,643.010311 398.158089,658.659857 455.853248,678.155148 C330.006937,679.892323 239.332419,672.501843 183.829694,655.98371 C128.326969,639.465577 63.1140382,616.439029 -11.8090994,586.904068 L-1.2063448,501.677689 Z" id="Path-22" fill="#813F5B" mask="url(#mask-2)"></path>
            <path d="M-4.0394362,214.728135 C53.8063798,271.440889 91.0146296,301.74833 107.585313,305.650457 C132.441339,311.503648 244.590184,352.84157 273.635124,379.216732 C302.680064,405.591895 372.253814,452.602097 405.314255,467.169117 C438.374695,481.736136 512.491149,501.49502 520.06742,501.49502 C527.643691,501.49502 488.88362,503.660009 457.954246,498.945043 C427.024872,494.230078 285.916698,427.971962 262.871887,413.435094 C239.827076,398.898227 110.440866,347.387889 88.594539,329.67379 C66.7482122,311.959692 5.73726715,252.779526 -4.0394362,233.75383 C-10.5572384,221.070033 -10.5572384,214.728135 -4.0394362,214.728135 Z" id="Path-23" fill="#813F5B" mask="url(#mask-2)"></path>
            <path d="M227.410027,153.452847 C259.932747,173.182512 285.708311,193.699063 304.73672,215.0025 C318.686842,230.620493 355.818902,294.489117 432.386106,364.142738 C450.968032,381.046822 490.113118,400.207998 549.821361,421.626266 C516.923232,430.80918 495.106503,434.688952 484.371173,433.265584 C449.376548,428.625741 432.546491,411.764615 434.713668,413.810402 C439.202105,418.047427 352.050169,334.400837 334.125999,303.05942 C316.20183,271.718004 269.195251,200.320801 257.722747,187.5099 C250.074411,178.969299 239.970171,167.616949 227.410027,153.452847 Z" id="Path-31" fill="#A77888" mask="url(#mask-2)"></path>
            <path d="M95.95903,481.082741 C195.672479,522.378745 258.820335,544.602621 285.4026,547.754371 C325.275997,552.481996 388.971439,567.087054 425.170581,577.967696 C461.369723,588.848339 513.440475,603.273656 534.800476,603.273656 C549.040478,603.273656 561.499782,603.273656 572.17839,603.273656 C554.101112,617.042706 525.080491,621.849751 485.116527,617.694792 C425.170581,611.462353 303.624105,587.974711 236.884882,567.864541 C192.392066,554.457761 145.416782,525.530494 95.95903,481.082741 Z" id="Path" fill="#599B97" mask="url(#mask-2)"></path>
            <path d="M549.32718,503.064379 C583.647584,491.094752 610.50682,485.109938 629.904889,485.109938 C659.001993,485.109938 678.627171,480.278935 706.048112,465.447732 C733.469053,450.616528 808.921074,414.607412 818.504085,414.607412 C824.89276,414.607412 839.428557,409.436568 862.111478,399.094881 C823.45358,423.464662 795.645073,439.360645 778.685957,446.782829 C753.247282,457.916107 692.917757,500.863432 661.411323,505.957061 C640.407034,509.352814 603.045653,508.388587 549.32718,503.064379 Z" id="Path-37" fill="#94B8B6" mask="url(#mask-2)"></path>
            <path d="M800.807728,193.55153 C795.598168,213.094271 791.579765,231.700347 788.752519,249.369759 C784.51165,275.873877 755.435158,333.779871 742.202805,347.101561 C733.381237,355.982687 720.974111,365.789011 704.981429,376.520532 C726.737209,372.485765 743.058511,362.679441 753.945336,347.101561 C770.275572,323.73474 797.867497,294.760722 800.807728,257.362773 C802.767882,232.430806 802.767882,211.160392 800.807728,193.55153 Z" id="Path-32" fill="#A77888" mask="url(#mask-2)"></path>
            <path d="M375.626017,-1.24925892 C357.756655,4.33019582 346.635512,16.2305149 342.262587,34.4516982 C335.7032,61.7834732 342.835043,102.210171 353.067687,122.120893 C359.88945,135.394708 375.447203,150.645819 399.740945,167.874226 C375.791074,159.884617 353.038866,143.062235 331.484321,117.407079 C299.152504,78.9243453 290.675986,49.8185541 287.497665,27.5166367 C285.378784,12.6486918 284.319343,3.06005988 284.319343,-1.24925892 L375.626017,-1.24925892 Z" id="Path-33" fill="#CDB2BB" mask="url(#mask-2)"></path>
            <path d="M724.586171,-1.0020368 C738.631289,9.04505979 747.467717,30.5034944 751.095456,63.3732671 C756.537065,112.677926 750.516997,136.699326 741.650708,163.395458 C735.739848,181.19288 728.411849,199.857136 719.666712,219.388228 C747.497579,198.25315 765.215654,169.266218 772.820938,132.427433 C784.228863,77.1692549 791.131976,46.8462369 784.228863,33.6696608 C779.626788,24.8852768 771.679377,13.3280442 760.386632,-1.0020368 L724.586171,-1.0020368 Z" id="Path-34" fill="#A77888" mask="url(#mask-2)"></path>
            <path d="M-29.8053827,234.591604 C-6.69684733,256.804696 12.7454593,277.571851 28.5215374,296.89307 C52.1856544,325.874897 168.406019,355.421464 203.92051,375.736828 C239.435001,396.052192 285.542177,433.850063 351.27787,439.790513 C395.101666,443.750814 413.946671,446.298756 407.812887,447.434341 C375.540306,448.285011 340.55087,447.223708 302.844578,444.25043 C246.285141,439.790513 185.888526,417.435982 134.222481,391.317537 C82.5564361,365.199092 0.714978792,328.4727 -11.4101338,328.4727 C-19.4935422,328.4727 -27.1200711,328.4727 -34.2897206,328.4727 L-29.8053827,234.591604 Z" id="Path-38" fill="#158A82" mask="url(#mask-2)" transform="translate(187.326412, 341.154902) rotate(10.000000) translate(-187.326412, -341.154902) "></path>
            <path d="M865.632705,-10.9327147 C897.486503,24.3508198 901.273656,92.1771439 901.273656,174.938884 C901.273656,257.700625 881.813098,342.543591 852.061433,379.276412 C832.22699,403.76496 799.873179,430.255291 755,458.747407 C859.577206,427.154862 913.938529,411.358589 918.083969,411.358589 C922.229409,411.358589 947.629746,265.062269 994.28498,-27.5303725 C887.280932,-39.9876236 844.39684,-34.455071 865.632705,-10.9327147 Z" id="Path-40" fill="#599B97" mask="url(#mask-2)"></path>
            <path d="M-60.2856096,628.814461 C-13.4987487,683.739043 49.2097439,722.261694 127.839868,744.382414 C245.785055,777.563494 396.447065,792.095648 439.454349,787.021707 C468.125871,783.639079 503.601613,785.330393 545.881574,792.095648 L383.372574,831.236865 L-60.2856096,847.211989 L-60.2856096,628.814461 Z" id="Path-39" fill="#6C1243" mask="url(#mask-2)"></path>
            <path d="M404.473305,815.775599 C448.809499,787.483082 488.281488,773.336824 522.88927,773.336824 C574.800944,773.336824 715.678372,789.66125 774.540939,759.501282 C813.78265,739.394637 863.66284,715.273917 924.181508,687.139125 L924.181508,833.15993 L404.473305,815.775599 Z" id="Path-41" fill="#404040" mask="url(#mask-2)"></path>
            <path d="M280.278394,617.242949 C357.697209,627.461766 410.892488,637.625969 439.864231,647.73556 C483.321846,662.899946 466.295556,661.066003 574.226414,671.266927 C646.180319,678.067542 723.804825,665.452827 807.099931,633.422781 C759.080704,675.277174 697.841365,696.204371 623.381914,696.204371 C511.692737,696.204371 415.92338,678.172022 394.550921,671.266927 C380.302615,666.66353 342.211772,648.655537 280.278394,617.242949 Z" id="Path" fill="#404040" mask="url(#mask-2)"></path>
            <path d="M-7.86555013,319.311317 C36.4422985,361.1385 66.9956499,395.542689 83.7945041,422.523882 C108.992785,462.995672 180.169934,536.136241 225.714948,553.423839 C256.078291,564.948904 291.076338,577.524068 330.70909,591.149331 C259.864291,581.657806 210.312656,567.430625 182.054184,548.467786 C139.666475,520.023528 61.0884998,462.973505 49.4378178,449.175728 C41.6706965,439.97721 22.5695738,419.491137 -7.86555013,387.717509 L-7.86555013,319.311317 Z" id="Path-42" fill="#414042" mask="url(#mask-2)"></path>
            <path d="M650.899344,508.372559 C665.80207,516.67342 693.270068,512.472233 733.303336,495.768998 C793.353239,470.714145 820.80966,446.845384 835.50491,441.499957 C845.301743,437.936339 865.565925,429.866997 896.297455,417.291931 L903.419349,356.285675 C867.019154,380.360132 840.223453,398.500569 823.032247,410.706985 C797.245436,429.016608 769.64476,441.133978 742.824127,462.710697 C724.943704,477.095177 694.30211,492.315797 650.899344,508.372559 Z" id="Path-43" fill="#414042" mask="url(#mask-2)"></path>
            <path d="M459.047442,19.5224223 C431.465748,55.8808472 424.570324,84.0655973 438.361171,104.076673 C459.047442,134.093286 512.415443,195.969722 524.695409,203.957779 C532.882052,209.28315 539.39165,213.908891 544.224202,217.835002 C488.037888,185.408023 451.422515,155.759522 434.378085,128.889498 C408.81144,88.5844625 412.293601,59.2365606 423.335843,46.3462442 C430.697338,37.7527 442.601204,28.811426 459.047442,19.5224223 Z" id="Path-36" fill="#A77888" mask="url(#mask-2)"></path>
            <path d="M-8.74844576,79.5229096 C-8.52405137,147.981805 1.69428718,189.709718 21.9065699,204.70665 C52.2249939,227.202048 124.978719,271.283794 155.439838,294.639557 C175.747251,310.210065 206.22025,332.488031 246.858836,361.473453 C185.897589,340.443679 143.425015,325.404531 119.441116,316.356009 C83.4652677,302.783227 23.6138698,251.016742 10.8930582,237.725151 C2.4125171,228.864091 -8.5399996,220.289819 -21.9644919,212.002336 L-8.74844576,79.5229096 Z" id="Path-2" fill="#94B8B6" mask="url(#mask-2)"></path>
            <path d="M433.723531,1003.83138 C450.864193,989.475871 461.250034,978.55133 464.881053,971.057763 C470.327581,959.817412 476.587257,956.761943 484.387002,956.476682 C492.186747,956.191422 495.947343,948.920762 496.2635,945.075857 C496.579657,941.230953 494.424279,930.937158 494.060219,928.480951 C493.696159,926.024744 494.309073,910.005866 497.177003,905.458949 C500.044933,900.912032 509.300679,898.747072 514.555118,898.246729 C519.809557,897.746387 518.442176,897.157663 520.105116,893.969504 C521.768056,890.781345 527.433978,887.254514 531.042243,883.947556 C534.650509,880.640598 540.755938,879.261961 541.756384,876.37463 C542.756831,873.487299 539.612981,869.998791 538.676964,868.488421 C537.740947,866.978051 537.993873,862.828486 537.993873,859.658051 C537.993873,856.487615 529.46002,841.393019 529.46002,840.38898 C529.46002,839.384941 535.623411,824.378246 537.993873,821.964912 C540.364334,819.551577 540.755938,810.258707 540.153802,803.411746 C539.551666,796.564784 543.059336,795.908518 545.59075,794.506168 C548.122164,793.103819 555.132234,785.97519 555.132234,778.244185 C555.132234,770.51318 545.888225,763.305272 542.406902,759.143013 C538.925579,754.980754 540.165538,738.643803 541.28622,736.074306 C542.406902,733.504809 546.873582,729.385183 546.873582,727.155795 C546.873582,724.926407 545.80248,721.308561 548.588736,713.45756 C551.374992,705.606559 557.889031,699.276946 557.889031,696.021483 C557.889031,692.766021 553.792638,683.221902 552.082993,679.268738 C550.373348,675.315573 551.558699,672.546323 554.172266,669.549774 C556.785833,666.553225 560.008003,660.834131 560.008003,659.010717 C560.008003,657.187304 548.7243,636.504147 546.361024,630.599926 C543.997748,624.695704 550.117548,622.084499 553.792638,619.996184 C557.467727,617.907869 560.583314,613.783932 561.977041,608.508416 C563.370768,603.2329 564.666294,598.920705 566.651379,598.012711 C568.636464,597.104717 570.929562,595.705002 572.849739,593.381964 C574.769916,591.058926 579.069895,589.635739 581.207789,588.846065 C583.345684,588.05639 593.755643,587.880516 596.539983,587.880516 C599.324323,587.880516 598.452495,585.673713 600.332913,584.492195 C602.21333,583.310677 601.797056,582.313583 601.797056,580.550767 C601.797056,578.78795 601.201148,577.394702 601.797056,575.588055 C602.392965,573.781407 603.256889,573.034323 603.256889,570.025362 C603.256889,567.016402 605.420172,567.019473 606.669951,566.703076 C607.919731,566.386679 607.525252,563.523299 607.525252,561.572705 C607.525252,560.272308 608.488015,559.058855 610.413541,557.932345 C609.408544,556.623006 608.621344,555.303209 608.051942,553.972953 C607.197838,551.977569 606.375589,546.742291 606.000033,544.235547 C605.624476,541.728802 605.420172,538.290352 604.119855,535.053092 C602.819538,531.815833 602.937378,522.323449 602.937378,517.5066 C602.937378,512.689752 605.420172,499.45234 606.000033,496.076402 C606.579894,492.700465 605.420172,477.797 605.420172,475.286423 C605.420172,472.775847 601.201148,449.710253 600.857446,447.175725 C600.513745,444.641197 595.74935,413.896813 595.162064,404.68418 C594.574778,395.471547 594.542204,380.481618 595.74935,374.354872 C596.956496,368.228126 598.813202,364.662973 599.548268,363.121227 C600.283333,361.579481 599.972924,357.59518 600.579372,354.16152 C601.185819,350.72786 603.517958,344.270826 604.119855,340.818723 C604.721751,337.36662 604.119855,333.083167 602.937378,329.699086 C601.754902,326.315005 601.599219,324.075797 601.201148,319.760489 C600.803077,315.445181 599.229236,313.925702 595.74935,309.126825 C592.269464,304.327947 592.966207,300.15638 592.280721,296.361763 C591.595234,292.567146 588.336419,285.047133 587.173103,282.480031 C586.39756,280.76863 585.557507,280.230715 584.652946,280.866287 C581.00596,284.863066 575.367661,288.985874 567.73805,293.234709 C556.293634,299.607963 542.185592,300.15638 540.755938,300.15638 C539.326284,300.15638 534.671586,303.685176 530.607048,305.556247 C526.54251,307.427317 515.918905,310.85587 509.300679,312.056789 C502.682452,313.257708 480.617784,315.764452 474.736539,315.436559 C468.855294,315.108665 468.185615,317.916717 461.357815,319.760489 C454.530014,321.604261 436.945679,320.801653 430.558821,317.916717 C424.171964,315.031781 425.93502,308.469361 427.333777,306.496731 C428.732534,304.524101 430.514751,305.556247 432.74366,306.496731 C434.972569,307.437215 437.882654,306.496731 445.726709,304.641358 C453.570764,302.785984 454.217689,301.349354 454.217689,299.323646 C454.217689,297.297938 448.401112,295.27095 446.590633,292.893583 C444.780153,290.516215 446.320941,288.240322 447.240671,287.652317 C448.160402,287.064312 449.158453,288.632884 450.980429,290.310434 C452.802406,291.987984 456.32732,293.698347 461.812171,295.27095 C467.297022,296.843553 468.959003,299.755155 470.357521,300.984097 C471.756038,302.213039 475.045271,301.714612 477.372381,301.349354 C479.699491,300.984097 482.990641,299.180802 489.726468,297.931146 C496.462296,296.681489 494.037226,296.055156 500.414742,293.698347 C506.792258,291.341538 518.320743,285.021026 527.433978,282.97726 C536.547213,280.933495 535.991543,282.292732 538.676964,280.168185 C541.362385,278.043637 546.152408,275.826117 550.413826,273.452542 C554.675243,271.078967 560.934919,269.014883 562.878089,267.818235 C564.821259,266.621586 571.25075,258.465247 575.242475,254.992067 C579.234201,251.518887 585.067783,247.780806 588.336419,248.096484 C591.605054,248.412163 590.867114,247.335551 592.966207,246.555154 C595.0653,245.774758 595.745518,246.555154 598.813202,246.555154 C601.880886,246.555154 603.458799,245.53561 604.53062,244.837641 C605.602441,244.139671 614.912556,241.124976 617.075838,240.042855 C619.239121,238.960735 619.342351,239.0369 619.342351,236.096397 C619.342351,233.155895 619.342351,230.066415 618.6298,227.92373 C617.917248,225.781046 617.073922,226.52186 615.925936,226.990348 C614.777949,227.458835 613.141596,226.400666 611.650387,224.546633 C610.159178,222.692599 608.300556,219.455025 609.378605,217.38156 C610.456654,215.308095 611.268364,216.603142 612.40629,215.868795 C613.544217,215.134448 612.40629,213.065054 611.923672,210.49436 C611.441053,207.923666 611.678171,203.322139 612.756459,199.712437 C613.834747,196.102735 617.799168,192.944275 620.272141,192.225257 C622.745114,191.506238 623.348448,189.969522 624.535475,187.285059 C625.722502,184.600596 629.840212,183.078011 632.0399,181.796615 C634.239589,180.51522 638.720879,181.079513 640.734945,181.438064 C642.749011,181.796615 644.657691,183.044479 646.260034,185.958156 C647.862377,188.871833 652.753954,193.68461 653.911521,195.221566 C655.069088,196.758522 655.526318,198.671273 656.197913,202.834251 C656.869508,206.997229 655.430752,210.77004 654.896159,212.00952 C654.361566,213.249001 656.250127,213.493304 657.844805,213.493304 C659.439484,213.493304 659.334577,214.638656 659.962341,215.868795 C660.590105,217.098935 659.319727,220.80061 658.271378,222.614922 C657.223029,224.429234 654.909332,224.546633 653.911521,224.008649 C653.246313,223.649993 652.57695,223.829321 651.903433,224.546633 C651.342542,228.201888 651.062096,230.764322 651.062096,232.233937 C651.062096,233.703552 651.342542,236.152289 651.903433,239.580147 C656.752158,242.101863 661.513567,243.854361 666.187659,244.837641 C673.198797,246.31256 679.464948,246.555154 683.250532,246.555154 C687.036116,246.555154 691.136987,248.379341 695.123443,251.114115 C699.109898,253.848889 704.018555,262.088911 707.974472,264.729056 C711.930388,267.369202 717.402306,268.378719 720.039414,269.014883 C722.676521,269.651047 729.857825,275.087045 733.494137,276.574869 C735.918345,277.566751 737.300505,278.00907 737.640618,277.901823 C748.920091,277.482876 757.665948,278.47103 763.878189,280.866287 C773.196551,284.459173 793.482397,289.665481 799.047864,289.665481 C804.613331,289.665481 803.03389,288.498965 806.87281,286.337556 C810.711731,284.176147 811.674365,284.072055 813.332489,283.566221 C814.990614,283.060387 818.306391,283.00748 819.699322,281.885268 C820.627943,281.137127 823.429034,278.871052 828.102596,275.087045 C828.560961,275.592879 829.110879,276.321665 829.752348,277.273402 C830.714551,278.701007 829.049943,280.866287 828.102596,281.885268 C827.155249,282.904249 822.231214,286.861456 822.231214,286.861456 C822.231214,286.861456 822.231214,290.176907 824.541492,291.291807 C826.851771,292.406707 828.756164,294.113467 830.822084,294.61586 C832.888004,295.118254 843.157385,294.61586 844.710159,294.113467 C846.262932,293.611074 849.360307,294.61586 849.360307,295.27095 C849.360307,295.92604 848.506927,296.361763 847.022328,296.361763 C845.537729,296.361763 842.881671,299.323646 840.642408,299.323646 C839.149567,299.323646 836.80062,299.601224 833.59557,300.15638 C836.884639,302.193768 839.233586,303.370033 840.642408,303.685176 C842.755643,304.15789 847.022328,302.674368 848.506927,302.674368 C849.991525,302.674368 850.213687,304.641358 849.360307,305.556247 C848.506927,306.471136 841.687627,310.389631 831.350705,310.389631 C821.013783,310.389631 809.42779,307.279782 806.87281,305.556247 C804.317831,303.832711 803.799523,304.641358 802.141798,304.641358 C800.484072,304.641358 797.338953,304.641358 794.777522,303.685176 C792.216091,302.728994 778.609135,305.028046 763.363322,305.556247 C748.11751,306.084448 739.001553,298.616941 736.377323,297.774744 C733.753093,296.932547 726.846046,298.436716 711.013778,294.61586 C695.18151,290.795005 686.690721,282.38422 685.160314,280.866287 C684.140043,279.854332 683.503449,279.621631 683.250532,280.168185 C682.129897,284.508208 681.08052,288.863716 680.102402,293.234709 C678.635225,299.791199 675.217812,309.264218 673.492019,313.925702 C671.766227,318.587185 670.253133,341.056493 670.253133,345.494326 C670.253133,349.93216 675.112327,369.10321 676.334331,377.083126 C677.556335,385.063041 678.046866,398.154622 676.334331,417.608692 C674.621797,437.062763 670.990947,452.47154 668.740039,464.378583 C666.48913,476.285627 668.740039,486.860572 670.253133,490.943909 C671.766227,495.027247 672.999759,499.091562 674.489221,502.05031 C675.978682,505.009058 676.334331,507.109521 674.489221,510.445246 C672.64411,513.780971 672.170295,516.625012 672.170295,524.350727 C672.170295,532.076443 674.489221,546.775651 676.334331,552.635505 C678.179442,558.495359 674.489221,555.863439 674.489221,559.64704 C674.489221,563.430641 678.046866,564.873988 678.046866,567.365262 C678.046866,569.856536 676.737823,571.141369 678.046866,573.034323 C679.355909,574.927276 681.306503,585.07913 680.7151,587.880516 C680.123696,590.681902 681.484616,592.910907 687.26089,596.024134 C693.037164,599.137362 697.157392,602.690972 702.319205,608.913393 C707.481019,615.135813 698.920075,617.49624 698.920075,630.599926 C698.920075,643.703611 707.745017,642.565764 711.898678,645.355622 C716.052338,648.14548 712.707391,651.66047 714.431454,655.35242 C716.155517,659.044371 717.402306,676.613558 715.953194,682.14716 C714.504082,687.680762 706.353547,687.589689 705.223194,693.962554 C704.09284,700.335419 716.635095,706.589543 718.976501,707.425923 C721.317906,708.262304 720.039414,720.991895 718.976501,722.502108 C717.913588,724.01232 712.929888,734.855298 715.953194,739.340975 C718.976501,743.826651 720.650992,747.688644 717.402306,750.853173 C714.153621,754.017702 712.801923,761.227524 717.402306,764.782287 C722.00269,768.33705 721.374972,771.878556 720.039414,776.282957 C718.703856,780.687359 714.431454,783.865722 714.431454,791.10206 C714.431454,798.338397 725.631234,800.490738 733.494137,800.490738 C741.35704,800.490738 740.997356,802.904772 740.997356,809.720902 C740.997356,816.537032 740.997356,816.105296 747.571391,817.939454 C754.145425,819.773613 752.711877,823.805073 751.541174,826.449097 C750.370471,829.093121 747.571391,829.942183 747.571391,831.791905 C747.571391,833.641627 760.017384,841.214016 765.838042,847.040438 C771.6587,852.86686 766.725148,854.859533 765.838042,860.496891 C764.950937,866.134248 774.29062,870.256205 776.22738,872.062696 C777.518554,873.267023 778.312473,875.833615 778.609135,879.762473 C797.689303,878.749132 809.263755,878.242461 813.332489,878.242461 C819.435592,878.242461 822.231214,883.81526 822.231214,888.706734 C822.231214,893.598208 823.252048,894.2461 826.335878,896.403629 C829.419709,898.561157 831.350705,902.436984 832.079296,904.776661 C832.807887,907.116337 832.983118,917.38751 831.350705,918.049813 C829.718293,918.712116 825.907024,919.474139 824.541492,923.195486 C823.175961,926.916834 820.434522,929.182152 819.142195,929.182152 C817.849869,929.182152 809.382304,929.182152 805.664992,931.7034 C803.186783,933.384232 801.739977,935.688746 801.324572,938.616944 C810.136066,949.385949 815.796672,956.287004 818.306391,959.32011 C822.07097,963.869769 824.607204,964.245016 828.102596,965.535037 C831.597988,966.825058 833.999341,967.69026 834.787303,970.718754 C835.575265,973.747249 836.922351,975.854053 839.767545,975.854053 C842.612739,975.854053 843.962707,980.426191 847.022328,983.050618 C850.081949,985.675044 854.798769,983.050618 857.722355,983.050618 C860.645942,983.050618 861.856994,987.877533 860.35024,992.050791 C859.345737,994.832963 856.472345,998.759828 851.730064,1003.83138 L433.723531,1003.83138 Z M635.682368,434.115005 L634.348454,438.561491 C633.876287,446.406886 633.758246,453.151434 633.994329,458.795135 C634.348454,467.260686 636.04399,480.276741 636.939795,480.276741 C637.8356,480.276741 636.939795,479.276338 636.939795,476.959116 C636.939795,474.641893 637.907891,470.862864 639.366554,467.233351 C640.825217,463.603838 640.900272,459.569554 639.366554,451.648699 C638.344075,446.368128 637.116013,440.523564 635.682368,434.115005 Z" fill="#6C1243" mask="url(#mask-2)"></path>
        </g>
    </g>
</svg>