<?xml version="1.0" encoding="UTF-8"?>
<svg width="1183px" height="1342px" viewBox="0 0 1183 1342" version="1.1" xmlns="http://www.w3.org/2000/svg" xmlns:xlink="http://www.w3.org/1999/xlink">
    <!-- Generator: Sketch 51.1 (57501) - http://www.bohemiancoding.com/sketch -->
    <title>Wallpaper background_Member</title>
    <desc>Created with Sketch.</desc>
    <defs>
        <linearGradient x1="-11.2022543%" y1="32.1594106%" x2="108.836852%" y2="84.4499861%" id="linearGradient-1">
            <stop stop-color="#EAFFFE" offset="0%"></stop>
            <stop stop-color="#C6D9D7" offset="59.5359292%"></stop>
            <stop stop-color="#158A82" offset="100%"></stop>
        </linearGradient>
        <rect id="path-2" x="0" y="0" width="1183" height="1344"></rect>
        <linearGradient x1="8.35199224%" y1="85.2988999%" x2="86.1720343%" y2="26.9380832%" id="linearGradient-4">
            <stop stop-color="#C6D8D7" offset="0%"></stop>
            <stop stop-color="#158A82" offset="100%"></stop>
        </linearGradient>
        <linearGradient x1="1.98439032%" y1="68.3751883%" x2="77.535567%" y2="39.3224567%" id="linearGradient-5">
            <stop stop-color="#01827D" offset="0%"></stop>
            <stop stop-color="#C6D9D7" offset="81.6090137%"></stop>
            <stop stop-color="#599B97" offset="100%"></stop>
        </linearGradient>
        <linearGradient x1="91.336075%" y1="89.0145085%" x2="12.1362873%" y2="12.6457461%" id="linearGradient-6">
            <stop stop-color="#E6EEF0" offset="0%"></stop>
            <stop stop-color="#158A82" offset="100%"></stop>
        </linearGradient>
        <linearGradient x1="24.0508377%" y1="78.5649307%" x2="84.2074695%" y2="33.1025348%" id="linearGradient-7">
            <stop stop-color="#158A82" offset="0%"></stop>
            <stop stop-color="#C6D9D7" offset="100%"></stop>
        </linearGradient>
        <linearGradient x1="24.8204486%" y1="92.3823641%" x2="91.7750446%" y2="40.2144586%" id="linearGradient-8">
            <stop stop-color="#E6EEF0" offset="0%"></stop>
            <stop stop-color="#93B8B6" offset="100%"></stop>
        </linearGradient>
    </defs>
    <g id="Wallpaper-background_Member" stroke="none" stroke-width="1" fill="none" fill-rule="evenodd" opacity="0.528306159">
        <g id="Wallpaper-background">
            <g id="Path-13">
                <mask id="mask-3" fill="white">
                    <use xlink:href="#path-2"></use>
                </mask>
                <use id="Mask" fill="url(#linearGradient-1)" xlink:href="#path-2"></use>
                <path d="M-69.6565788,489.420706 C-37.0808994,432.216825 27.3376283,400.765038 123.599004,395.065345 C267.991068,386.515805 354.813288,446.511328 536.397137,368.1233 C717.980985,289.735272 771.862328,130.126614 973.7585,64.6857711 C1108.35595,21.0585425 1193.99736,-5.74338132 1230.68274,-15.7200003 L1259.37271,600.603527 L-127,827.476757 L-69.6565788,489.420706 Z" id="Path-5" fill="url(#linearGradient-4)" mask="url(#mask-3)"></path>
                <path d="M-41.7197266,658.114149 C120.818958,597.624213 248.15906,535.744845 340.300581,472.476044 C478.512861,377.572843 557.713257,383.924535 832.257324,357.37645 C1015.2867,339.677727 1185.4515,254.552243 1342.75171,102 L1366,497.702928 C1175.68669,505.154587 1018.23307,539.412781 893.63916,600.477512 C706.748291,692.074608 556.610352,797.659071 302.680298,809.357596 C133.393595,817.156613 11.1668294,828.354777 -64,842.952089 L-64,658.114149 L-41.7197266,658.114149 Z" id="Path-4" fill="url(#linearGradient-5)" mask="url(#mask-3)"></path>
                <path d="M-83.5865313,816.010142 C62.0786976,729.931303 174.668328,679.620422 254.182359,665.077499 C373.453405,643.263115 488.800106,684.433804 626.435638,598.692225 C764.07117,512.950646 743.526492,437.161291 903.203767,375.966247 C1062.88104,314.771203 1088.17127,248.257458 1155.37933,133.181656 C1200.1847,56.4644542 1251.41922,12.0705689 1309.08288,0 L1249.37827,769.956054 C1155.17036,864.888138 985.026244,938.919297 738.94592,992.049532 C542.617144,1034.43811 496.390956,1195.01692 254.182359,1342 C213.263743,1366.83126 92.7318709,1385.47215 -107.413258,1397.92267 L-83.5865313,816.010142 Z" fill="url(#linearGradient-6)" mask="url(#mask-3)"></path>
                <path d="M-14.5900075,1390.85926 C-168.444207,1134.46727 -95.4338031,957.889298 204.441204,861.125353 C654.253715,715.979435 826.085297,708.036503 883.717097,601.844769 C941.348897,495.653035 956.731323,426.99266 1128.69931,353.880812 C1243.34464,305.139581 1307.46597,260.898255 1321.06331,221.156835 L1321.06331,675.82397 C1257.13025,646.760529 1197.06023,639.494668 1140.85324,654.026389 C1056.54277,675.82397 870.405651,720.897407 751.160471,821.984908 C693.548433,870.824258 446.665696,927.197107 204.441204,1104.4309 C143.099602,1149.31407 70.089198,1244.79019 -14.5900075,1390.85926 Z" id="Path-3" fill="url(#linearGradient-7)" mask="url(#mask-3)"></path>
                <path d="M-91.4196018,1004.26585 C-119.77993,905.013531 -83.1218872,839.21028 18.5545252,806.856093 C171.069144,758.324814 274.092758,708.178088 426.283587,721.614818 C578.474416,735.051549 801.395832,715.766365 877.594284,574.118643 C928.393252,479.686828 1003.57599,410.001255 1103.14251,365.061925 C1008.24494,457.989178 920.905939,564.017998 841.125523,683.148385 C721.454898,861.843967 393.360363,800.218952 330.47449,884.875659 C288.550575,941.313465 147.919211,981.110194 -91.4196018,1004.26585 Z" id="Path-6" fill="url(#linearGradient-8)" mask="url(#mask-3)"></path>
            </g>
        </g>
    </g>
</svg>