<?xml version="1.0" encoding="UTF-8"?>
<svg class="mp-icon mp-icon--svg" width="29px" height="25px" viewBox="0 0 29 25" version="1.1" xmlns="http://www.w3.org/2000/svg" xmlns:xlink="http://www.w3.org/1999/xlink">
  <g transform="translate(-7.000000, -11.000000)">
    <g>
      <path d="M24.5002496,15.191557 C25.8411332,16.0328381 26.7813803,17.4564609 26.9525646,19.1089643 C27.4994135,19.3646442 28.1063397,19.5116783 28.749819,19.5116783 C31.0989891,19.5116783 33.0030076,17.6063922 33.0030076,15.2560202 C33.0030076,12.9052861 31.0989891,11 28.749819,11 C26.4230875,11.0007243 24.535717,12.871968 24.5002496,15.191557 Z M21.7138899,23.9056787 C24.06306,23.9056787 25.9670785,22.0000304 25.9670785,19.6496585 C25.9670785,17.2992865 24.0626981,15.3940004 21.7138899,15.3940004 C19.3650817,15.3940004 17.4599775,17.2996487 17.4599775,19.6500206 C17.4599775,22.0003926 19.3650817,23.9056787 21.7138899,23.9056787 Z M23.5180207,24.1957631 L19.9090353,24.1957631 C16.9062523,24.1957631 14.4633471,26.640657 14.4633471,29.6454391 L14.4633471,34.061893 L14.4745663,34.1310642 L14.7785723,34.2263104 C17.6441907,35.1222765 20.1337826,35.4210526 22.1829277,35.4210526 C26.1853114,35.4210526 28.5051666,34.2791847 28.6481218,34.206392 L28.9322226,34.0626173 L28.9626232,34.0626173 L28.9626232,29.6454391 C28.963709,26.640657 26.5208037,24.1957631 23.5180207,24.1957631 Z M30.5546737,19.8021248 L26.9735555,19.8021248 C26.9348309,21.2358879 26.3231998,22.5269628 25.3558093,23.4555227 C28.0249095,24.2497239 29.9777861,26.7264872 29.9777861,29.6519578 L29.9777861,31.0129282 C33.5136653,30.8832775 35.5512293,29.8804763 35.6854986,29.8131159 L35.9695994,29.668979 L36,29.668979 L36,25.2510765 C36,22.2466565 33.5570947,19.8021248 30.5546737,19.8021248 Z M14.2509048,19.5124026 C15.0829402,19.5124026 15.8570698,19.269398 16.5128541,18.8554573 C16.7213154,17.4948491 17.4502059,16.3059013 18.4914264,15.4961275 C18.4957694,15.4164539 18.5033695,15.3375046 18.5033695,15.2571067 C18.5033695,12.9063726 16.5989891,11.0010865 14.2509048,11.0010865 C11.9013728,11.0010865 9.99771621,12.9063726 9.99771621,15.2571067 C9.99771621,17.6067543 11.9013728,19.5124026 14.2509048,19.5124026 Z M18.0705229,23.4555227 C17.1078373,22.5316708 16.4983776,21.2474768 16.4538625,19.8224054 C16.3210408,19.8126273 16.1896668,19.8021248 16.0543117,19.8021248 L12.4456883,19.8021248 C9.44290528,19.8021248 7,22.2466565 7,25.2510765 L7,29.6682547 L7.01121927,29.7363395 L7.31522526,29.83231 C9.6140896,30.5504591 11.6657681,30.8814668 13.4478223,30.9857668 L13.4478223,29.6519578 C13.4485461,26.7264872 15.4006989,24.2504482 18.0705229,23.4555227 Z" fill-rule="nonzero"></path>
    </g>
  </g>
</svg>
